<svg width="60" height="60" viewBox="0 0 60 60" fill="none" xmlns="http://www.w3.org/2000/svg">
<path fill-rule="evenodd" clip-rule="evenodd" d="M30.0137 0.116699C46.4487 0.116699 59.8837 13.5508 59.8837 30.0145C59.8837 46.4499 46.4492 59.8559 30.0137 59.8559C13.5782 59.8559 0.144531 46.4495 0.144531 30.0141C0.144531 13.5508 13.5782 0.116699 30.0137 0.116699ZM10.0163 13.9434L20.7302 41.7375L24.6565 31.5846H34.9496L38.8755 41.7375L49.7017 13.6068C47.7914 11.302 45.4946 9.34714 42.9142 7.82965L35.3982 28.5277H24.7962L17.2525 7.74506C14.4758 9.34379 12.0359 11.4475 10.0163 13.9434ZM54.0215 20.9271L41.8209 52.7598C50.011 48.4687 55.6476 39.8867 55.6476 30.0145C55.6476 26.817 55.0871 23.7597 54.0215 20.9271ZM36.4919 54.8349L36.4086 54.1898L29.789 37.0255L23.1702 54.1898L23.1424 54.723C25.3299 55.3395 27.6297 55.6484 30.0137 55.6484C32.2571 55.6484 34.4168 55.3681 36.4919 54.8349ZM17.7011 52.4791L5.80972 21.4881C4.85613 24.1523 4.35113 27.0131 4.35113 30.0141C4.35113 39.662 9.73605 48.1316 17.7011 52.4791ZM30.0137 4.3515C32.2571 4.3515 34.4728 4.63219 36.5765 5.19273L30.0978 23.1146L23.591 5.16496C25.6887 4.6222 27.8469 4.34884 30.0137 4.3515Z" fill="white"/>
</svg>
